<svg width="16" height="17" viewBox="0 0 16 17" fill="none" xmlns="http://www.w3.org/2000/svg">
<path d="M15.5001 11.9854V14.1104C15.5009 14.3077 15.4581 14.5029 15.3745 14.6837C15.2908 14.8644 15.168 15.0267 15.0141 15.16C14.8602 15.2934 14.6785 15.3949 14.4806 15.4581C14.2828 15.5213 14.0731 15.5448 13.8651 15.5271C11.5572 15.2902 9.34032 14.5454 7.39257 13.3525C5.58044 12.2649 4.04407 10.8139 2.89257 9.10248C1.62506 7.25458 0.836254 5.15068 0.590072 2.96123C0.57133 2.76535 0.595978 2.56793 0.662447 2.38154C0.728916 2.19516 0.83575 2.02388 0.976146 1.87863C1.11654 1.73337 1.28743 1.61731 1.47792 1.53785C1.6684 1.45838 1.87433 1.41725 2.08257 1.41706H4.33257C4.69655 1.41368 5.04942 1.53541 5.32539 1.75956C5.60137 1.98372 5.78163 2.295 5.83257 2.63539C5.92754 3.31544 6.10366 3.98316 6.35757 4.62581C6.45848 4.87934 6.48032 5.15487 6.4205 5.41977C6.36069 5.68466 6.22172 5.92781 6.02007 6.12039L5.06757 7.01998C6.13524 8.79332 7.68991 10.2616 9.56757 11.27L10.5201 10.3704C10.724 10.1799 10.9814 10.0487 11.2619 9.99221C11.5424 9.93572 11.8341 9.95634 12.1026 10.0516C12.783 10.2914 13.49 10.4578 14.2101 10.5475C14.5744 10.596 14.9071 10.7693 15.145 11.0345C15.3828 11.2996 15.5092 11.638 15.5001 11.9854Z" stroke="white" stroke-linecap="round" stroke-linejoin="round"/>
</svg>
