<?xml version="1.0" encoding="UTF-8"?> <svg xmlns="http://www.w3.org/2000/svg" width="18" height="17" viewBox="0 0 18 17" fill="none"> <path d="M16.5001 11.9844V14.1094C16.5009 14.3067 16.4581 14.502 16.3745 14.6827C16.2908 14.8635 16.168 15.0257 16.0141 15.1591C15.8602 15.2924 15.6785 15.394 15.4806 15.4572C15.2828 15.5204 15.0731 15.5438 14.8651 15.5261C12.5572 15.2892 10.3403 14.5444 8.39257 13.3515C6.58044 12.264 5.04407 10.813 3.89257 9.1015C2.62506 7.2536 1.83625 5.1497 1.59007 2.96025C1.57133 2.76437 1.59598 2.56696 1.66245 2.38057C1.72892 2.19418 1.83575 2.02291 1.97615 1.87765C2.11654 1.73239 2.28743 1.61634 2.47792 1.53687C2.6684 1.4574 2.87433 1.41627 3.08257 1.41608H5.33257C5.69655 1.4127 6.04942 1.53443 6.32539 1.75859C6.60137 1.98274 6.78163 2.29403 6.83257 2.63442C6.92754 3.31446 7.10366 3.98218 7.35757 4.62483C7.45848 4.87836 7.48032 5.1539 7.4205 5.41879C7.36069 5.68368 7.22172 5.92683 7.02007 6.11942L6.06757 7.019C7.13524 8.79234 8.68991 10.2606 10.5676 11.269L11.5201 10.3694C11.724 10.179 11.9814 10.0477 12.2619 9.99123C12.5424 9.93474 12.8341 9.95537 13.1026 10.0507C13.783 10.2905 14.49 10.4568 15.2101 10.5465C15.5744 10.595 15.9071 10.7684 16.145 11.0335C16.3828 11.2986 16.5092 11.637 16.5001 11.9844Z" stroke="black" stroke-width="2" stroke-linecap="round" stroke-linejoin="round"></path> </svg> 